<svg version="1.1" id="Layer_1" xmlns="http://www.w3.org/2000/svg" xmlns:xlink="http://www.w3.org/1999/xlink" x="0px" y="0px"
	 width="100%" viewBox="0 0 474 134" enable-background="new 0 0 474 134" xml:space="preserve">
<path fill="#121B5E" opacity="1.000000" stroke="none" 
	d="
M318.000000,135.000000 
	C212.000031,135.000000 106.500061,135.000000 1.000071,135.000000 
	C1.000047,90.333382 1.000047,45.666756 1.000024,1.000101 
	C158.999908,1.000067 316.999817,1.000067 474.999817,1.000034 
	C474.999878,45.666561 474.999878,90.333122 474.999939,134.999847 
	C422.833344,135.000000 370.666656,135.000000 318.000000,135.000000 
M110.005898,70.393829 
	C109.648773,64.937752 109.740265,59.407936 108.857620,54.038242 
	C104.825287,29.507086 88.049232,11.823833 63.703651,9.165194 
	C45.121765,7.135974 26.239962,7.853148 7.300102,7.343440 
	C7.300102,47.393345 7.300102,86.582016 7.300102,125.822098 
	C23.737204,125.822098 39.908936,126.533592 55.996208,125.670624 
	C87.300323,123.991371 108.197243,102.527145 110.005898,70.393829 
M423.690552,30.749123 
	C420.578735,24.513275 417.633118,18.185240 414.255707,12.096723 
	C413.217407,10.225012 411.221466,8.241951 409.267334,7.673371 
	C406.426544,6.846824 404.620850,8.950266 403.320709,11.652622 
	C390.081177,39.171204 376.732880,66.637444 363.416443,94.119041 
	C358.369904,104.533806 353.327209,114.950417 347.970703,126.010529 
	C352.453949,126.010529 356.233673,125.827278 359.986572,126.065979 
	C363.243683,126.273155 365.176880,125.244637 366.533051,122.112000 
	C369.363464,115.573975 372.719299,109.264519 375.598267,102.745880 
	C376.723541,100.197998 378.226379,99.451401 380.918854,99.467308 
	C399.578278,99.577522 418.239746,99.436745 436.896851,99.670776 
	C438.654663,99.692825 441.141846,101.338860 441.998016,102.927444 
	C445.365753,109.176102 448.098450,115.763992 451.342957,122.084244 
	C452.147186,123.650826 453.886169,125.626846 455.371857,125.787872 
	C459.868378,126.275215 464.451447,125.964073 469.788269,125.964073 
	C454.257019,93.905968 439.124298,62.670502 423.690552,30.749123 
M237.995392,17.528568 
	C237.995392,36.345882 237.630859,55.173702 238.172440,73.975418 
	C238.393219,81.640411 239.680969,89.537506 242.025375,96.833488 
	C252.783875,130.314972 293.621582,135.214233 315.982544,118.952126 
	C329.779816,108.917984 335.468262,94.422523 335.881287,77.997620 
	C336.433685,56.031651 336.116364,34.043800 336.171844,12.065345 
	C336.175079,10.786033 336.172272,9.506706 336.172272,8.030848 
	C330.596710,8.030848 325.522705,8.030848 319.995422,8.030848 
	C319.995422,9.837365 319.995422,11.464545 319.995422,13.091725 
	C319.995392,32.741749 320.131165,52.393314 319.907349,72.040787 
	C319.845398,77.474930 319.181885,83.001953 317.991211,88.306053 
	C313.092285,110.129135 288.884613,120.088219 269.916382,108.138123 
	C258.223633,100.771629 254.289139,89.163933 254.090942,76.196358 
	C253.770340,55.219032 254.004623,34.233223 254.004593,13.250994 
	C254.004593,11.488766 254.004608,9.726538 254.004608,8.010718 
	C248.380615,8.010718 243.428726,8.010718 237.995392,8.010718 
	C237.995392,10.969205 237.995392,13.753021 237.995392,17.528568 
M141.317856,123.154503 
	C158.189499,128.284897 175.111496,129.980057 192.197632,124.083481 
	C206.190247,119.254517 214.543488,108.405899 214.847534,94.498260 
	C215.122284,81.930969 207.380066,71.790237 193.096405,66.889771 
	C181.643799,62.960583 169.959625,59.711391 158.458282,55.917698 
	C149.947708,53.110504 145.749496,47.106182 146.013824,38.929512 
	C146.278488,30.742411 150.843445,24.128830 159.380859,22.569338 
	C167.084381,21.162174 175.267487,20.626814 182.999390,21.603836 
	C191.350433,22.659092 199.423447,25.914665 207.851212,28.275866 
	C207.851212,25.743601 207.690399,22.617306 207.889191,19.514048 
	C208.181503,14.951058 206.459915,12.192834 201.941498,10.704492 
	C188.112228,6.149202 174.056503,4.294491 159.675049,7.016995 
	C147.381729,9.344197 137.063995,14.865625 132.065201,27.174995 
	C124.587334,45.588940 133.744751,63.933548 153.207550,69.977234 
	C164.629898,73.524155 176.107391,76.904823 187.454727,80.677139 
	C192.939331,82.500450 196.938126,86.364380 198.007080,92.259140 
	C199.074844,98.147308 197.039200,103.413216 192.069595,106.603638 
	C188.254456,109.052902 183.781509,111.009590 179.346466,111.864769 
	C163.973679,114.828979 149.319672,111.753830 135.248062,105.313118 
	C133.271622,104.408478 131.267242,103.564941 128.954346,102.552391 
	C131.656342,119.551094 131.656342,119.551094 141.317856,123.154503 
z"/>
<path fill="#FCFCFC" opacity="1.000000" stroke="none" 
	d="
M110.004852,70.873222 
	C108.197243,102.527145 87.300323,123.991371 55.996208,125.670624 
	C39.908936,126.533592 23.737204,125.822098 7.300102,125.822098 
	C7.300102,86.582016 7.300102,47.393345 7.300102,7.343440 
	C26.239962,7.853148 45.121765,7.135974 63.703651,9.165194 
	C88.049232,11.823833 104.825287,29.507086 108.857620,54.038242 
	C109.740265,59.407936 109.648773,64.937752 110.004852,70.873222 
M93.662834,62.066799 
	C93.440575,60.591801 93.163544,59.122684 93.004532,57.640900 
	C91.403366,42.719589 79.616135,25.980198 63.344078,24.041882 
	C50.119576,22.466587 36.711033,22.436270 23.327517,21.717752 
	C23.327517,52.335236 23.327517,81.570824 23.327517,110.956718 
	C34.801559,110.956718 45.972290,111.367355 57.096672,110.825836 
	C65.880722,110.398239 73.865028,107.053566 80.398514,100.877411 
	C91.337326,90.536880 94.275932,77.344521 93.662834,62.066799 
z"/>
<path fill="#F8F9FA" opacity="1.000000" stroke="none" 
	d="
M423.841064,31.092083 
	C439.124298,62.670502 454.257019,93.905968 469.788269,125.964073 
	C464.451447,125.964073 459.868378,126.275215 455.371857,125.787872 
	C453.886169,125.626846 452.147186,123.650826 451.342957,122.084244 
	C448.098450,115.763992 445.365753,109.176102 441.998016,102.927444 
	C441.141846,101.338860 438.654663,99.692825 436.896851,99.670776 
	C418.239746,99.436745 399.578278,99.577522 380.918854,99.467308 
	C378.226379,99.451401 376.723541,100.197998 375.598267,102.745880 
	C372.719299,109.264519 369.363464,115.573975 366.533051,122.112000 
	C365.176880,125.244637 363.243683,126.273155 359.986572,126.065979 
	C356.233673,125.827278 352.453949,126.010529 347.970703,126.010529 
	C353.327209,114.950417 358.369904,104.533806 363.416443,94.119041 
	C376.732880,66.637444 390.081177,39.171204 403.320709,11.652622 
	C404.620850,8.950266 406.426544,6.846824 409.267334,7.673371 
	C411.221466,8.241951 413.217407,10.225012 414.255707,12.096723 
	C417.633118,18.185240 420.578735,24.513275 423.841064,31.092083 
M425.008698,67.406174 
	C419.728210,56.407436 414.447754,45.408695 408.893341,33.839321 
	C400.438843,51.354301 392.471283,67.860596 384.295410,84.798370 
	C401.202271,84.798370 416.992004,84.798370 433.598236,84.798370 
	C430.715057,78.927910 428.047180,73.495903 425.008698,67.406174 
z"/>
<path fill="#FBFBFC" opacity="1.000000" stroke="none" 
	d="
M237.995392,17.032703 
	C237.995392,13.753021 237.995392,10.969205 237.995392,8.010718 
	C243.428726,8.010718 248.380615,8.010718 254.004608,8.010718 
	C254.004608,9.726538 254.004593,11.488766 254.004593,13.250994 
	C254.004623,34.233223 253.770340,55.219032 254.090942,76.196358 
	C254.289139,89.163933 258.223633,100.771629 269.916382,108.138123 
	C288.884613,120.088219 313.092285,110.129135 317.991211,88.306053 
	C319.181885,83.001953 319.845398,77.474930 319.907349,72.040787 
	C320.131165,52.393314 319.995392,32.741749 319.995422,13.091725 
	C319.995422,11.464545 319.995422,9.837365 319.995422,8.030848 
	C325.522705,8.030848 330.596710,8.030848 336.172272,8.030848 
	C336.172272,9.506706 336.175079,10.786033 336.171844,12.065345 
	C336.116364,34.043800 336.433685,56.031651 335.881287,77.997620 
	C335.468262,94.422523 329.779816,108.917984 315.982544,118.952126 
	C293.621582,135.214233 252.783875,130.314972 242.025375,96.833488 
	C239.680969,89.537506 238.393219,81.640411 238.172440,73.975418 
	C237.630859,55.173702 237.995392,36.345882 237.995392,17.032703 
z"/>
<path fill="#F7F7F9" opacity="1.000000" stroke="none" 
	d="
M140.928680,123.078766 
	C131.656342,119.551094 131.656342,119.551094 128.954346,102.552391 
	C131.267242,103.564941 133.271622,104.408478 135.248062,105.313118 
	C149.319672,111.753830 163.973679,114.828979 179.346466,111.864769 
	C183.781509,111.009590 188.254456,109.052902 192.069595,106.603638 
	C197.039200,103.413216 199.074844,98.147308 198.007080,92.259140 
	C196.938126,86.364380 192.939331,82.500450 187.454727,80.677139 
	C176.107391,76.904823 164.629898,73.524155 153.207550,69.977234 
	C133.744751,63.933548 124.587334,45.588940 132.065201,27.174995 
	C137.063995,14.865625 147.381729,9.344197 159.675049,7.016995 
	C174.056503,4.294491 188.112228,6.149202 201.941498,10.704492 
	C206.459915,12.192834 208.181503,14.951058 207.889191,19.514048 
	C207.690399,22.617306 207.851212,25.743601 207.851212,28.275866 
	C199.423447,25.914665 191.350433,22.659092 182.999390,21.603836 
	C175.267487,20.626814 167.084381,21.162174 159.380859,22.569338 
	C150.843445,24.128830 146.278488,30.742411 146.013824,38.929512 
	C145.749496,47.106182 149.947708,53.110504 158.458282,55.917698 
	C169.959625,59.711391 181.643799,62.960583 193.096405,66.889771 
	C207.380066,71.790237 215.122284,81.930969 214.847534,94.498260 
	C214.543488,108.405899 206.190247,119.254517 192.197632,124.083481 
	C175.111496,129.980057 158.189499,128.284897 140.928680,123.078766 
z"/>
<path fill="#121B5E" opacity="1.000000" stroke="none" 
	d="
M93.739304,62.513176 
	C94.275932,77.344521 91.337326,90.536880 80.398514,100.877411 
	C73.865028,107.053566 65.880722,110.398239 57.096672,110.825836 
	C45.972290,111.367355 34.801559,110.956718 23.327517,110.956718 
	C23.327517,81.570824 23.327517,52.335236 23.327517,21.717752 
	C36.711033,22.436270 50.119576,22.466587 63.344078,24.041882 
	C79.616135,25.980198 91.403366,42.719589 93.004532,57.640900 
	C93.163544,59.122684 93.440575,60.591801 93.739304,62.513176 
z"/>
<path fill="#161E61" opacity="1.000000" stroke="none" 
	d="
M425.194031,67.735031 
	C428.047180,73.495903 430.715057,78.927910 433.598236,84.798370 
	C416.992004,84.798370 401.202271,84.798370 384.295410,84.798370 
	C392.471283,67.860596 400.438843,51.354301 408.893341,33.839321 
	C414.447754,45.408695 419.728210,56.407436 425.194031,67.735031 
z"/>
</svg>