<svg version="1.1" id="Layer_1" xmlns="http://www.w3.org/2000/svg" xmlns:xlink="http://www.w3.org/1999/xlink" x="0px" y="0px"
	 width="100%" viewBox="0 0 1790 618" enable-background="new 0 0 1790 618" xml:space="preserve">
<path fill="#0F1A62" opacity="1.000000" stroke="none" 
	d="
M1109.000000,619.000000 
	C739.333313,619.000000 370.166656,619.000000 1.000000,619.000000 
	C1.000000,413.000000 1.000000,207.000000 1.000000,1.000000 
	C597.666687,1.000000 1194.333374,1.000000 1791.000000,1.000000 
	C1791.000000,207.000000 1791.000000,413.000000 1791.000000,619.000000 
	C1563.833374,619.000000 1336.666626,619.000000 1109.000000,619.000000 
M187.526718,508.175171 
	C232.015961,508.175049 276.505219,508.161743 320.994446,508.181183 
	C339.380432,508.189209 357.601654,506.657227 375.405334,501.871521 
	C433.378967,486.288086 474.354370,451.029205 495.531677,394.716217 
	C513.664734,346.498352 513.570068,297.250183 498.007111,248.260437 
	C484.433197,205.531876 458.281830,172.545334 418.820251,150.781525 
	C388.818756,134.235123 356.183350,128.070663 322.227905,128.017914 
	C275.572571,127.945435 228.917007,127.997520 182.261551,128.009430 
	C180.654343,128.009857 179.047165,128.152039 177.391235,128.230453 
	C177.391235,254.980972 177.391235,381.366241 177.391235,508.175171 
	C180.612335,508.175171 183.575638,508.175171 187.526718,508.175171 
M1395.341675,259.847443 
	C1355.234741,342.451721 1315.127686,425.056000 1274.771240,508.174103 
	C1291.416992,508.174103 1307.390503,508.078827 1323.361206,508.249878 
	C1326.790894,508.286621 1328.591797,507.355103 1330.145264,504.087036 
	C1342.344116,478.424194 1354.832764,452.899231 1367.107056,427.271942 
	C1368.539307,424.281525 1370.039917,422.891144 1373.695435,422.899231 
	C1438.519897,423.042908 1503.344849,423.035980 1568.169434,422.911438 
	C1571.567261,422.904938 1573.013794,424.054749 1574.415405,426.983307 
	C1586.750610,452.757965 1599.328857,478.416321 1611.650146,504.197479 
	C1613.073853,507.176331 1614.564941,508.322784 1617.937500,508.264771 
	C1630.931885,508.041138 1643.932373,508.174103 1656.930664,508.174103 
	C1659.995605,508.174103 1663.060425,508.174103 1666.743286,508.174103 
	C1665.705078,505.883423 1665.070801,504.389160 1664.360962,502.931732 
	C1606.166016,383.427338 1547.970581,263.923126 1489.747559,144.432419 
	C1487.071533,138.940659 1485.433350,131.439636 1480.972534,128.740570 
	C1476.440796,125.998528 1469.005127,128.165207 1462.849731,127.944016 
	C1460.352417,127.854271 1459.064697,128.632996 1457.949829,130.940018 
	C1437.272217,173.723373 1416.496704,216.459457 1395.341675,259.847443 
M1236.782227,236.500107 
	C1236.782227,200.407425 1236.782227,164.314728 1236.782227,128.256424 
	C1219.170532,128.256424 1202.240356,128.256424 1184.981445,128.256424 
	C1184.981445,130.308060 1184.981445,132.107773 1184.981445,133.907471 
	C1184.981323,202.400986 1185.272217,270.896698 1184.753540,339.386292 
	C1184.639771,354.417389 1182.845337,369.682648 1179.706665,384.388000 
	C1174.590942,408.356232 1163.196899,429.362701 1143.863892,445.141876 
	C1121.301270,463.557037 1095.042847,469.257507 1066.573730,466.064880 
	C1028.904541,461.840576 1001.964966,442.267426 985.573914,408.280365 
	C975.319702,387.018341 972.053345,364.225372 972.057922,340.832367 
	C972.071533,271.838898 972.062683,202.845444 972.062622,133.851990 
	C972.062622,131.941635 972.062561,130.031281 972.062561,128.209778 
	C954.539612,128.209778 937.756287,128.209778 920.733826,128.209778 
	C920.659424,129.878860 920.536560,131.351181 920.536377,132.823502 
	C920.527466,201.983612 920.533264,271.143738 920.527588,340.303833 
	C920.525391,367.155853 924.065491,393.400513 933.958069,418.547424 
	C949.532837,458.138184 976.262756,487.121552 1016.012024,503.022980 
	C1045.583984,514.852966 1076.362183,517.436035 1107.763550,512.137756 
	C1154.227783,504.297852 1189.691650,480.448486 1213.186279,439.350677 
	C1230.699341,408.716156 1236.617065,375.258392 1236.750854,340.490234 
	C1236.882935,306.160675 1236.781250,271.830200 1236.782227,236.500107 
M581.455200,185.004684 
	C571.256592,207.169052 569.666382,230.295456 574.660583,253.848846 
	C582.975708,293.063873 609.258484,315.561401 645.682495,327.701019 
	C663.958496,333.792175 682.703735,338.460724 701.138184,344.095306 
	C720.030273,349.869751 739.028381,355.423553 757.548401,362.245758 
	C770.353088,366.962616 781.333496,375.046722 788.020935,387.576416 
	C799.994995,410.011230 791.181274,436.532532 767.535645,450.480621 
	C748.017944,461.993744 726.487244,465.932343 704.408875,466.710541 
	C658.592041,468.325439 615.874329,456.368988 575.437683,435.405121 
	C573.628662,434.467224 571.804199,433.559143 569.517395,432.398956 
	C569.328552,433.972565 569.070312,434.640106 569.205261,435.215454 
	C573.228394,452.372742 577.218750,469.538666 581.466614,486.640594 
	C581.854248,488.201263 583.689575,489.926697 585.264893,490.577423 
	C592.167908,493.428833 599.122742,496.229309 606.238892,498.478058 
	C650.413635,512.437378 695.256531,519.652466 741.522888,510.982513 
	C767.840820,506.050781 792.531555,497.382263 813.442871,479.812134 
	C848.191772,450.615356 856.661194,395.228027 831.622498,357.368591 
	C817.982788,336.744873 797.794739,324.759766 774.861694,317.158508 
	C759.409058,312.036621 743.683533,307.741302 728.101929,303.004181 
	C706.167297,296.335693 683.885986,290.596710 662.407043,282.684448 
	C618.947510,266.675079 618.694946,225.006821 632.247803,200.577576 
	C640.616028,185.493805 654.972656,178.133759 671.071838,173.954132 
	C694.158386,167.960449 717.577881,168.218948 741.036743,171.036163 
	C767.533386,174.218185 792.912720,181.058990 816.026733,194.928284 
	C818.238464,196.255402 820.428711,197.618393 823.073059,199.236542 
	C823.073059,185.229446 823.073181,171.916840 823.073059,158.604233 
	C823.072937,145.196259 823.040161,145.274612 810.610718,140.093582 
	C788.931213,131.056778 766.229553,126.286354 743.010925,123.568298 
	C712.463745,119.992340 682.125000,120.495529 652.416931,129.266525 
	C621.742615,138.322784 596.516724,154.665268 581.455200,185.004684 
z"/>
<path fill="#FEFEFE" opacity="1.000000" stroke="none" 
	d="
M187.032837,508.175171 
	C183.575638,508.175171 180.612335,508.175171 177.391235,508.175171 
	C177.391235,381.366241 177.391235,254.980972 177.391235,128.230453 
	C179.047165,128.152039 180.654343,128.009857 182.261551,128.009430 
	C228.917007,127.997520 275.572571,127.945435 322.227905,128.017914 
	C356.183350,128.070663 388.818756,134.235123 418.820251,150.781525 
	C458.281830,172.545334 484.433197,205.531876 498.007111,248.260437 
	C513.570068,297.250183 513.664734,346.498352 495.531677,394.716217 
	C474.354370,451.029205 433.378967,486.288086 375.405334,501.871521 
	C357.601654,506.657227 339.380432,508.189209 320.994446,508.181183 
	C276.505219,508.161743 232.015961,508.175049 187.032837,508.175171 
M228.872528,235.499954 
	C228.872528,310.411438 228.872528,385.322906 228.872528,460.304077 
	C230.270279,460.393768 231.088531,460.492035 231.906815,460.492249 
	C262.058624,460.500244 292.212402,460.692566 322.361053,460.385284 
	C331.809082,460.289001 341.388885,459.621338 350.659332,457.885284 
	C396.272522,449.343353 427.962463,423.394836 445.202911,380.270355 
	C457.275482,350.072540 458.605408,318.715515 453.623840,286.954041 
	C450.232239,265.330261 442.805511,245.121567 429.849121,227.305954 
	C405.538605,193.877838 371.980133,177.438171 331.232239,176.242340 
	C297.942963,175.265381 264.605957,175.913422 231.290070,175.863770 
	C230.527878,175.862625 229.765289,176.133682 228.872787,176.302338 
	C228.872787,195.875946 228.872787,215.187943 228.872528,235.499954 
z"/>
<path fill="#FEFEFE" opacity="1.000000" stroke="none" 
	d="
M1395.541748,259.526489 
	C1416.496704,216.459457 1437.272217,173.723373 1457.949829,130.940018 
	C1459.064697,128.632996 1460.352417,127.854271 1462.849731,127.944016 
	C1469.005127,128.165207 1476.440796,125.998528 1480.972534,128.740570 
	C1485.433350,131.439636 1487.071533,138.940659 1489.747559,144.432419 
	C1547.970581,263.923126 1606.166016,383.427338 1664.360962,502.931732 
	C1665.070801,504.389160 1665.705078,505.883423 1666.743286,508.174103 
	C1663.060425,508.174103 1659.995605,508.174103 1656.930664,508.174103 
	C1643.932373,508.174103 1630.931885,508.041138 1617.937500,508.264771 
	C1614.564941,508.322784 1613.073853,507.176331 1611.650146,504.197479 
	C1599.328857,478.416321 1586.750610,452.757965 1574.415405,426.983307 
	C1573.013794,424.054749 1571.567261,422.904938 1568.169434,422.911438 
	C1503.344849,423.035980 1438.519897,423.042908 1373.695435,422.899231 
	C1370.039917,422.891144 1368.539307,424.281525 1367.107056,427.271942 
	C1354.832764,452.899231 1342.344116,478.424194 1330.145264,504.087036 
	C1328.591797,507.355103 1326.790894,508.286621 1323.361206,508.249878 
	C1307.390503,508.078827 1291.416992,508.174103 1274.771240,508.174103 
	C1315.127686,425.056000 1355.234741,342.451721 1395.541748,259.526489 
M1488.959473,250.570877 
	C1483.032593,238.386169 1477.105713,226.201477 1470.827637,213.294846 
	C1444.402710,267.815125 1418.396240,321.472046 1392.239868,375.438354 
	C1445.029663,375.438354 1496.957642,375.438354 1549.485596,375.438354 
	C1529.219604,333.674988 1509.226074,292.473267 1488.959473,250.570877 
z"/>
<path fill="#FEFEFE" opacity="1.000000" stroke="none" 
	d="
M1236.782227,237.000122 
	C1236.781250,271.830200 1236.882935,306.160675 1236.750854,340.490234 
	C1236.617065,375.258392 1230.699341,408.716156 1213.186279,439.350677 
	C1189.691650,480.448486 1154.227783,504.297852 1107.763550,512.137756 
	C1076.362183,517.436035 1045.583984,514.852966 1016.012024,503.022980 
	C976.262756,487.121552 949.532837,458.138184 933.958069,418.547424 
	C924.065491,393.400513 920.525391,367.155853 920.527588,340.303833 
	C920.533264,271.143738 920.527466,201.983612 920.536377,132.823502 
	C920.536560,131.351181 920.659424,129.878860 920.733826,128.209778 
	C937.756287,128.209778 954.539612,128.209778 972.062561,128.209778 
	C972.062561,130.031281 972.062622,131.941635 972.062622,133.851990 
	C972.062683,202.845444 972.071533,271.838898 972.057922,340.832367 
	C972.053345,364.225372 975.319702,387.018341 985.573914,408.280365 
	C1001.964966,442.267426 1028.904541,461.840576 1066.573730,466.064880 
	C1095.042847,469.257507 1121.301270,463.557037 1143.863892,445.141876 
	C1163.196899,429.362701 1174.590942,408.356232 1179.706665,384.388000 
	C1182.845337,369.682648 1184.639771,354.417389 1184.753540,339.386292 
	C1185.272217,270.896698 1184.981323,202.400986 1184.981445,133.907471 
	C1184.981445,132.107773 1184.981445,130.308060 1184.981445,128.256424 
	C1202.240356,128.256424 1219.170532,128.256424 1236.782227,128.256424 
	C1236.782227,164.314728 1236.782227,200.407425 1236.782227,237.000122 
z"/>
<path fill="#FEFEFE" opacity="1.000000" stroke="none" 
	d="
M581.636597,184.675156 
	C596.516724,154.665268 621.742615,138.322784 652.416931,129.266525 
	C682.125000,120.495529 712.463745,119.992340 743.010925,123.568298 
	C766.229553,126.286354 788.931213,131.056778 810.610718,140.093582 
	C823.040161,145.274612 823.072937,145.196259 823.073059,158.604233 
	C823.073181,171.916840 823.073059,185.229446 823.073059,199.236542 
	C820.428711,197.618393 818.238464,196.255402 816.026733,194.928284 
	C792.912720,181.058990 767.533386,174.218185 741.036743,171.036163 
	C717.577881,168.218948 694.158386,167.960449 671.071838,173.954132 
	C654.972656,178.133759 640.616028,185.493805 632.247803,200.577576 
	C618.694946,225.006821 618.947510,266.675079 662.407043,282.684448 
	C683.885986,290.596710 706.167297,296.335693 728.101929,303.004181 
	C743.683533,307.741302 759.409058,312.036621 774.861694,317.158508 
	C797.794739,324.759766 817.982788,336.744873 831.622498,357.368591 
	C856.661194,395.228027 848.191772,450.615356 813.442871,479.812134 
	C792.531555,497.382263 767.840820,506.050781 741.522888,510.982513 
	C695.256531,519.652466 650.413635,512.437378 606.238892,498.478058 
	C599.122742,496.229309 592.167908,493.428833 585.264893,490.577423 
	C583.689575,489.926697 581.854248,488.201263 581.466614,486.640594 
	C577.218750,469.538666 573.228394,452.372742 569.205261,435.215454 
	C569.070312,434.640106 569.328552,433.972565 569.517395,432.398956 
	C571.804199,433.559143 573.628662,434.467224 575.437683,435.405121 
	C615.874329,456.368988 658.592041,468.325439 704.408875,466.710541 
	C726.487244,465.932343 748.017944,461.993744 767.535645,450.480621 
	C791.181274,436.532532 799.994995,410.011230 788.020935,387.576416 
	C781.333496,375.046722 770.353088,366.962616 757.548401,362.245758 
	C739.028381,355.423553 720.030273,349.869751 701.138184,344.095306 
	C682.703735,338.460724 663.958496,333.792175 645.682495,327.701019 
	C609.258484,315.561401 582.975708,293.063873 574.660583,253.848846 
	C569.666382,230.295456 571.256592,207.169052 581.636597,184.675156 
z"/>
<path fill="#0F1A62" opacity="1.000000" stroke="none" 
	d="
M228.872650,234.999939 
	C228.872787,215.187943 228.872787,195.875946 228.872787,176.302338 
	C229.765289,176.133682 230.527878,175.862625 231.290070,175.863770 
	C264.605957,175.913422 297.942963,175.265381 331.232239,176.242340 
	C371.980133,177.438171 405.538605,193.877838 429.849121,227.305954 
	C442.805511,245.121567 450.232239,265.330261 453.623840,286.954041 
	C458.605408,318.715515 457.275482,350.072540 445.202911,380.270355 
	C427.962463,423.394836 396.272522,449.343353 350.659332,457.885284 
	C341.388885,459.621338 331.809082,460.289001 322.361053,460.385284 
	C292.212402,460.692566 262.058624,460.500244 231.906815,460.492249 
	C231.088531,460.492035 230.270279,460.393768 228.872528,460.304077 
	C228.872528,385.322906 228.872528,310.411438 228.872650,234.999939 
z"/>
<path fill="#111B63" opacity="1.000000" stroke="none" 
	d="
M1489.096069,250.921204 
	C1509.226074,292.473267 1529.219604,333.674988 1549.485596,375.438354 
	C1496.957642,375.438354 1445.029663,375.438354 1392.239868,375.438354 
	C1418.396240,321.472046 1444.402710,267.815125 1470.827637,213.294846 
	C1477.105713,226.201477 1483.032593,238.386169 1489.096069,250.921204 
z"/>
</svg>